# xmcd
#
# Track frame offsets:
#	150
#	15717
#	28694
#	39876
#	55111
#	66689
#	77321
#	90397
#	105278
#	123490
#	138941
#	151694
#
# Disc length: 2195 seconds
#
# Revision: 0
# Processed by: cddbd v1.5.2PL0 Copyright (c) Steve Scherf et al.
# Submitted via: EasyCDDAExtractor 5.0.5.1
#
DISCID=8508910c
DTITLE=Various Artist - Las mejores baladas Soul
DYEAR=1900
DGENRE=soul
TTITLE0=Nat King Cole - Unforgetable
TTITLE1=Ben E. King - Stand by me
TTITLE2=Sam Cooke - Cupid
TTITLE3=Ray Charles - Just for a thrill
TTITLE4=The Platters - The great pretender
TTITLE5=Dionne Warwick - Close to you
TTITLE6=Percy Sledge - When a man loves a woman
TTITLE7=Louis Armstrong - What a wonderful world
TTITLE8=Ella Fitzgerald - I get a kick of you
TTITLE9=Nat King Cole - Mona Lisa
TTITLE10=The Platters - Remeber when
TTITLE11=Johnny Adams - Release me
EXTD=
EXTT0=
EXTT1=
EXTT2=
EXTT3=
EXTT4=
EXTT5=
EXTT6=
EXTT7=
EXTT8=
EXTT9=
EXTT10=
EXTT11=
PLAYORDER=
